<?xml version="1.0" encoding="UTF-8" standalone="no"?>
<!-- Created with Inkscape (http://www.inkscape.org/) -->

<svg
   xmlns:dc="http://purl.org/dc/elements/1.1/"
   xmlns:cc="http://creativecommons.org/ns#"
   xmlns:rdf="http://www.w3.org/1999/02/22-rdf-syntax-ns#"
   xmlns:svg="http://www.w3.org/2000/svg"
   xmlns="http://www.w3.org/2000/svg"
   xmlns:sodipodi="http://sodipodi.sourceforge.net/DTD/sodipodi-0.dtd"
   xmlns:inkscape="http://www.inkscape.org/namespaces/inkscape"
   version="1.1"
   width="210mm"
   height="297mm"
   id="svg17357"
   inkscape:version="0.48.2 r9819"
   sodipodi:docname="pacman-t2.svg">
  <sodipodi:namedview
     pagecolor="#ffffff"
     bordercolor="#666666"
     borderopacity="1"
     objecttolerance="10"
     gridtolerance="10"
     guidetolerance="10"
     inkscape:pageopacity="0"
     inkscape:pageshadow="2"
     inkscape:window-width="817"
     inkscape:window-height="632"
     id="namedview18441"
     showgrid="false"
     inkscape:snap-global="true"
     inkscape:zoom="0.58058348"
     inkscape:cx="372.04724"
     inkscape:cy="181.70005"
     inkscape:window-x="0"
     inkscape:window-y="0"
     inkscape:window-maximized="0"
     inkscape:current-layer="svg17357" />
  <defs
     id="defs3" />
  <metadata
     id="metadata4">
    <rdf:RDF>
      <cc:Work
         rdf:about="">
        <dc:format>image/svg+xml</dc:format>
        <dc:type
           rdf:resource="http://purl.org/dc/dcmitype/StillImage" />
        <dc:title></dc:title>
      </cc:Work>
    </rdf:RDF>
  </metadata>
  <g
     id="layer1">
    <path
       d="M 124.58681,769.10339 A 105.298,105.298 0 0 0 51.504155,944.78354 l -5.318304,0 c -12.144303,0 -21.942409,10.29096 -21.942409,23.06946 l 0,33.7413 c 0,12.7785 9.798106,23.0695 21.942409,23.0695 l 155.815749,0 c 12.14431,10e-5 21.90719,-10.291 21.90719,-23.0695 l 0,-33.7413 c 0,-10.94094 -7.15167,-20.0403 -16.83543,-22.43549 a 105.298,105.298 0 0 0 16.58889,-23.87954 l -94.10934,-47.26599 94.35588,-46.70247 a 105.298,105.298 0 0 0 -99.32198,-58.46612 z"
       id="rect17422"
       style="fill:#ffff00;fill-opacity:1"
       inkscape:connector-curvature="0" />
  </g>
</svg>
