<?xml version="1.0" encoding="UTF-8" standalone="no"?>
<!-- Created with Inkscape (http://www.inkscape.org/) -->

<svg
   xmlns:dc="http://purl.org/dc/elements/1.1/"
   xmlns:cc="http://creativecommons.org/ns#"
   xmlns:rdf="http://www.w3.org/1999/02/22-rdf-syntax-ns#"
   xmlns:svg="http://www.w3.org/2000/svg"
   xmlns="http://www.w3.org/2000/svg"
   xmlns:sodipodi="http://sodipodi.sourceforge.net/DTD/sodipodi-0.dtd"
   xmlns:inkscape="http://www.inkscape.org/namespaces/inkscape"
   width="1080"
   height="1080"
   id="svg5714"
   version="1.1"
   inkscape:version="0.48.2 r9819"
   sodipodi:docname="family.svg">
  <defs
     id="defs5716" />
  <sodipodi:namedview
     id="base"
     pagecolor="#ffffff"
     bordercolor="#666666"
     borderopacity="1.0"
     inkscape:pageopacity="0.0"
     inkscape:pageshadow="2"
     inkscape:zoom="0.66635149"
     inkscape:cx="510.34246"
     inkscape:cy="400.12337"
     inkscape:document-units="px"
     inkscape:current-layer="layer1"
     showgrid="false"
     units="in"
     inkscape:window-width="1144"
     inkscape:window-height="812"
     inkscape:window-x="146"
     inkscape:window-y="42"
     inkscape:window-maximized="0" />
  <metadata
     id="metadata5719">
    <rdf:RDF>
      <cc:Work
         rdf:about="">
        <dc:format>image/svg+xml</dc:format>
        <dc:type
           rdf:resource="http://purl.org/dc/dcmitype/StillImage" />
        <dc:title></dc:title>
      </cc:Work>
    </rdf:RDF>
  </metadata>
  <g
     inkscape:label="Layer 1"
     inkscape:groupmode="layer"
     id="layer1"
     transform="translate(0,27.64025)">
    <path
       style="font-size:288px;font-style:normal;font-variant:normal;font-weight:normal;font-stretch:normal;text-align:start;line-height:125%;letter-spacing:0px;word-spacing:0px;writing-mode:lr-tb;text-anchor:start;fill:none;stroke:#000000;stroke-opacity:1;font-family:Devanagari Sangam MN;-inkscape-font-specification:Devanagari Sangam MN"
       d="m 4.9047354,165.57779 c 0,7.0625 0,14.125 0,21.1875 10.6665996,0 21.3332996,0 31.9999996,0 0,53.22917 0,106.45833 0,159.6875 7.7291,0 15.4583,0 23.1874,0 0,-53.22917 0,-106.45833 0,-159.6875 11.7292,0 23.4584,0 35.1876,0 0,-7.72917 0,-15.45833 0,-23.1875 -30.1251,0 -60.25,0 -90.3749996,0 l 0,1 0,1 z"
       id="path5731"
       inkscape:connector-curvature="0" />
    <path
       style="font-size:288px;font-style:normal;font-variant:normal;font-weight:normal;font-stretch:normal;text-align:start;line-height:125%;letter-spacing:0px;word-spacing:0px;writing-mode:lr-tb;text-anchor:start;fill:none;stroke:#000000;stroke-opacity:1;font-family:Devanagari Sangam MN;-inkscape-font-specification:Devanagari Sangam MN"
       d="m 904.08935,-25.14025 c 0,7.0625 0,14.125 0,21.1875 29.60417,0 59.20834,0 88.8125,0 0,6.729167 0,13.458333 0,20.1875 -18.67205,-0.496596 -38.49509,-0.783593 -55.125,8.59375 -15.24614,7.882949 -25.78817,24.564761 -24,42.031254 0.51976,24.378486 19.62847,45.313286 42.80695,51.018796 6.828,2.21306 14.55536,2.10252 21.31805,2.63745 11.42507,15.48727 26.17315,27.94012 41.31255,39.6875 3.9704,-4.85768 8.0089,-9.65938 12,-14.5 -11.8925,-8.75118 -23.3142,-18.13786 -32.9063,-29.375 14.3049,-4.23705 28.1594,-16.50686 27.0626,-32.59375 0.074,-14.301116 -12.4077,-26.138845 -26.34385,-27.28125 -15.68173,-2.505662 -32.80922,8.430994 -34.59375,24.71875 -0.77481,5.0178 -0.20468,10.19496 1.09375,15.0625 -14.24931,-2.1979 -29.26153,-13.48803 -28.625,-29.218746 -1.06333,-12.924593 10.03008,-22.944847 21.9375,-25.250004 18.65834,-4.298333 38.19989,-1.553195 57.25005,-2.34375 0,-14.458333 0,-28.916667 0,-43.375 14.8334,0 29.6667,0 44.5001,0 0,-7.729167 0,-15.458333 0,-23.1875 -52.1668,0 -104.33349,0 -156.50015,0 l 0,1 0,1 z M 994.9956,73.016 c 8.2567,-0.392126 9.1532,11.44137 4.15625,16.03125 -3.43327,3.77846 -8.36821,5.81352 -13.34375,6.75 -2.95925,-7.65454 -3.02025,-19.76358 6.625,-22.4375 0.8242,-0.28415 1.70066,-0.31078 2.5625,-0.34375 z"
       id="path5727"
       inkscape:connector-curvature="0" />
    <path
       style="font-size:288px;font-style:normal;font-variant:normal;font-weight:normal;font-stretch:normal;text-align:start;line-height:125%;letter-spacing:0px;word-spacing:0px;writing-mode:lr-tb;text-anchor:start;fill:none;stroke:#000000;stroke-opacity:1;font-family:Devanagari Sangam MN;-inkscape-font-specification:Devanagari Sangam MN"
       d="m 0.5,-25.14025 c 0,7.0625 0,14.125 0,21.1875 29.59375,0 59.1875,0 88.78125,0 0,6.729167 0,13.458333 0,20.1875 C 70.66161,15.756757 50.85172,15.414693 34.1875,24.8285 18.9943,32.681659 8.34801,49.386464 10.15625,66.859754 c 0.52346,24.876386 20.43782,46.090646 44.2188,51.372826 6.38884,1.95653 13.63397,1.71234 19.9062,2.28342 11.41514,15.46549 26.18547,27.94332 41.3125,39.6875 3.97036,-4.85768 8.00883,-9.65938 12,-14.5 -11.84635,-8.71233 -23.32838,-18.21193 -32.875,-29.34375 14.00176,-4.22903 27.71341,-16.06298 27.0625,-31.84375 1.11915,-34.379669 -55.72933,-38.075715 -60.75,-4.875 -0.99329,5.48237 -0.57088,11.19408 0.875,16.5625 C 47.0569,94.01516 31.8139,81.83393 33.3125,65.484754 33.01074,52.167846 45.47163,42.980236 57.65625,41.23475 75.64292,37.763919 94.24878,40.126919 112.5,39.42225 c 0,-14.458333 0,-28.916667 0,-43.375 14.82292,0 29.64583,0 44.46875,0 0,-7.729167 0,-15.458333 0,-23.1875 -52.15625,0 -104.3125,0 -156.46875,0 l 0,1 0,1 z M 91.375,73.016 c 8.053209,-0.402046 9.09748,10.78993 4.625,15.53125 -3.42017,4.06053 -8.69919,6.33014 -13.8125,7.25 C 78.87047,87.18317 79.58457,73.60917 91.375,73.016 z"
       id="path5733"
       inkscape:connector-curvature="0" />
    <path
       style="font-size:288px;font-style:normal;font-variant:normal;font-weight:normal;font-stretch:normal;text-align:start;line-height:125%;letter-spacing:0px;word-spacing:0px;writing-mode:lr-tb;text-anchor:start;fill:none;stroke:#000000;stroke-opacity:1;font-family:Devanagari Sangam MN;-inkscape-font-specification:Devanagari Sangam MN"
       d="m 504.15182,-27.033702 c -19.05012,-0.09602 -38.99605,11.061916 -44.625,29.9999992 -5.38158,15.7121238 -2.16942,33.6403088 6.84375,47.3125008 5.56293,-3.360794 11.08164,-6.794497 16.625,-10.1875 -7.81184,-12.266234 -6.78329,-31.1236908 6.4375,-39.3125008 17.05388,-10.146905 40.24441,-3.502901 52.9375,10.8125008 12.68287,13.565815 19.37326,31.356037 25.1875,48.687496 -10.42708,0 -20.85417,0 -31.28125,0 0,7.72917 0,15.458336 0,23.187506 10.66667,0 21.33333,0 32,0 0,53.22917 0,106.45833 0,159.6875 7.72917,0 15.45833,0 23.1875,0 0,-53.22917 0,-106.45833 0,-159.6875 11.73958,0 23.47917,0 35.21875,0 0,-7.72917 0,-15.458336 0,-23.187506 -11.89583,0 -23.79167,0 -35.6875,0 C 583.34891,31.960512 570.23876,3.1880802 546.11934,-14.64619 533.98635,-23.345929 519.1934,-27.909975 504.15182,-27.033702 z"
       id="path5737"
       inkscape:connector-curvature="0" />
    <path
       style="font-size:288px;font-style:normal;font-variant:normal;font-weight:normal;font-stretch:normal;text-align:start;line-height:125%;letter-spacing:0px;word-spacing:0px;writing-mode:lr-tb;text-anchor:start;fill:none;stroke:#000000;stroke-opacity:1;font-family:Devanagari Sangam MN;-inkscape-font-specification:Devanagari Sangam MN"
       d="m 630.68307,-25.14025 c 0,7.0625 0,14.125 0,21.1875 13.38542,0 26.77083,0 40.15625,0 0,20.27083 0,40.54167 0,60.8125 -8.52813,1.07403 -18.34124,-2.34446 -26.09375,2.1875 -8.21038,6.30713 -3.51948,18.23104 1.40625,25.15625 8.50298,11.59397 20.73717,22.49595 35.53125,24.28125 7.80006,1.25555 13.77477,-6.74374 12.34375,-14.0625 0.90089,-4.28759 -1.76438,-10.86299 1.75,-14.15625 16.90058,-0.5334 33.95101,-0.0559 50.90623,-0.21875 0,25.22917 0,50.45833 0,75.6875 7.7292,0 15.4583,0 23.1875,0 0,-53.22917 0,-106.45833 0,-159.6875 11.7396,0 23.4792,0 35.2188,0 0,-7.72917 0,-15.45833 0,-23.1875 -58.1355,0 -116.27086,0 -174.40628,0 l 0,1 0,1 z m 115.99998,21.1875 c 0,20.27083 0,40.54167 0,60.8125 -17.55206,0 -35.10415,0 -52.65623,0 0,-20.27083 0,-40.54167 0,-60.8125 17.55208,0 35.10417,0 52.65623,0 z"
       id="path5778"
       inkscape:connector-curvature="0" />
    <path
       style="font-size:288px;font-style:normal;font-variant:normal;font-weight:normal;font-stretch:normal;text-align:start;line-height:125%;letter-spacing:0px;word-spacing:0px;writing-mode:lr-tb;text-anchor:start;fill:none;stroke:#000000;stroke-opacity:1;font-family:Devanagari Sangam MN;-inkscape-font-specification:Devanagari Sangam MN"
       d="m 391.625,-27.117875 c -13.01472,0.0906 -21.90696,16.02966 -15.125,27.15624908 1.70529,3.94390992 5.96118,5.90355992 8.875,8.28124992 -0.2201,2.091111 3.86745,8.256351 -0.25,6.968751 -15.97529,-2.59987 -29.35991,-13.942371 -37.84375,-27.28125 -5.04012,5.627399 -10.08643,11.24968904 -15.09375,16.906249 8.52851,11.277771 18.66997,21.775891 31.625,27.843751 -4.98919,1.16706 -14.75376,-2.44126 -16.46875,2 0,7.0625 0,14.125 0,21.1875 10.66667,0 21.33334,0 32,0 0,53.229165 0,106.458325 0,159.687495 7.72917,0 15.45834,0 23.1875,0 0,-53.22917 0,-106.45833 0,-159.687495 11.73959,0 23.47917,0 35.21875,0 0,-7.72917 0,-15.45833 0,-23.1875 -3.98731,-0.45071 -15.70551,0.88166 -15.1307,-0.62225 12.34139,-6.18026 22.10708,-16.2458 30.28695,-27.221501 -5.01462,-5.65933996 -10.07897,-11.2748 -15.125,-16.906249 -8.78691,13.966669 -22.99913,25.72475 -39.84375,27.5 1.21164,-3.41182 0.66926,-8.200641 4.875,-9.312501 11.07195,-6.54389992 10.40329,-24.571369 -0.75,-30.656249 -3.05908,-1.98306 -6.77716,-2.83123 -10.4375,-2.65625 z"
       id="path5782"
       inkscape:connector-curvature="0" />
    <g
       style="font-size:288px;font-style:normal;font-variant:normal;font-weight:normal;font-stretch:normal;text-align:start;line-height:125%;letter-spacing:0px;word-spacing:0px;writing-mode:lr-tb;text-anchor:start;fill:none;stroke:#000000;stroke-opacity:1;font-family:Devanagari Sangam MN;-inkscape-font-specification:Devanagari Sangam MN"
       id="text5820"
       transform="translate(128.40625,-286.6715)">
      <path
         d="m 32.5625,261.53125 c 0,7.0625 0,14.125 0,21.1875 36.270833,0 72.54167,0 108.8125,0 0,10.42708 0,20.85417 0,31.28125 -19.1314,-15.6275 -47.248528,-20.95017 -69.779249,-9.69799 -16.563664,7.62665 -31.429953,24.21359 -29.276153,43.60182 2.151549,27.63656 28.155237,48.05106 54.617902,50.59617 15.49812,1.639 31.69836,-1.77102 44.4375,-10.90625 0,18.27083 0,36.54167 0,54.8125 7.72917,0 15.45833,0 23.1875,0 0,-53.22917 0,-106.45833 0,-159.6875 11.73958,0 23.47917,0 35.21875,0 0,-7.72917 0,-15.45833 0,-23.1875 -55.73958,0 -111.479167,0 -167.21875,0 l 0,1 0,1 z m 65.84375,55.90625 c 17.9756,-0.0962 37.54788,10.81424 42.59375,28.71875 2.59032,9.8977 -2.85771,19.47244 -11,24.84375 -4.73989,4.66604 -6.06883,-6.81145 -9.23869,-9.37942 -8.42163,-14.59295 -17.98685,-29.75707 -25.69881,-43.99558 1.105312,-0.16494 2.229605,-0.12001 3.34375,-0.1875 z m 13.6875,61.4375 c -20.606957,3.73329 -44.165802,-10.00699 -48.625,-30.9375 -1.779992,-10.74681 5.398436,-21.27192 15.28125,-25.40625 11.114583,18.78125 22.22917,37.5625 33.34375,56.34375 z"
         id="path5825"
         inkscape:connector-curvature="0"
         style="fill:none;stroke:#000000;stroke-opacity:1" />
    </g>
    <path
       style="font-size:288px;font-style:normal;font-variant:normal;font-weight:normal;font-stretch:normal;text-align:start;line-height:125%;letter-spacing:0px;word-spacing:0px;writing-mode:lr-tb;text-anchor:start;fill:none;stroke:#000000;stroke-opacity:1;font-family:Devanagari Sangam MN;-inkscape-font-specification:Devanagari Sangam MN"
       inkscape:connector-curvature="0"
       id="path5890"
       d="m 6.5714122,356.65616 c 0,7.07292 0,14.14583 0,21.21875 5.5292698,0.73115 15.5837898,-3.06296 12.7812498,6 0.41929,20.04217 -0.80157,40.27204 0.53125,60.21875 2.62331,24.75572 24.96025,45.71863 50.125,45.4375 10.60187,0.35269 21.48472,-3.1443 29.34375,-10.25 0,19.41667 0,38.83333 0,58.25 7.739578,0 15.479168,0 23.218748,0 0,-53.21875 0,-106.4375 0,-159.65625 11.72917,0 23.45833,0 35.1875,0 0,-7.73958 0,-15.47917 0,-23.21875 -50.39583,0 -100.791668,0 -151.1874978,0 l 0,1 0,1 z m 92.7812498,21.21875 c -0.34041,22.49499 0.664408,45.1724 -0.46875,67.5625 -2.25279,14.59826 -17.65442,23.55053 -31.65625,20.875 -14.10354,-1.22351 -25.3056,-14.35174 -24.65625,-28.40625 0,-20.01042 0,-40.02083 0,-60.03125 18.92708,0 37.85417,0 56.78125,0 z" />
    <path
       style="font-size:288px;font-style:normal;font-variant:normal;font-weight:normal;font-stretch:normal;text-align:start;line-height:125%;letter-spacing:0px;word-spacing:0px;writing-mode:lr-tb;text-anchor:start;fill:none;stroke:#000000;stroke-opacity:1;font-family:Devanagari Sangam MN;-inkscape-font-specification:Devanagari Sangam MN"
       inkscape:connector-curvature="0"
       id="path5892"
       d="m 493.67295,333.9258 c 22.98875,-0.024 44.45763,-18.6195 46.1875,-41.6875 1.2579,-16.26962 -3.63559,-32.99198 -13.90625,-45.59375 6.83333,0 13.66667,0 20.5,0 0,-7.73958 0,-15.47917 0,-23.21875 -7.57292,0 -15.14583,0 -22.71875,0 0,-53.21875 0,-106.4375 0,-159.656241 -7.72917,0 -15.45833,0 -23.1875,0 0,53.218741 0,106.437491 0,159.656241 -11.73958,0 -23.47917,0 -35.21875,0 0,7.73958 0,15.47917 0,23.21875 11.19792,0 22.39583,0 33.59375,0 10.98272,11.88328 20.87727,27.09518 17.28125,43.9375 -2.19917,13.73453 -17.05553,20.44675 -29.75,20.15625 -36.71267,1.29885 -69.85309,-17.58638 -99.96875,-36.375 -10.8072,-6.91346 -21.40482,-14.24032 -31.90625,-21.71875 -3.45157,5.67078 -6.94217,11.31788 -10.375,17 39.62611,28.7128 82.75038,56.34382 132.0625,63.4375 5.76642,0.69418 11.59806,1.0679 17.40625,0.84375 z" />
    <path
       style="font-size:288px;font-style:normal;font-variant:normal;font-weight:normal;font-stretch:normal;text-align:start;line-height:125%;letter-spacing:0px;word-spacing:0px;writing-mode:lr-tb;text-anchor:start;fill:none;stroke:#000000;stroke-opacity:1;font-family:Devanagari Sangam MN;-inkscape-font-specification:Devanagari Sangam MN"
       inkscape:connector-curvature="0"
       id="path5896"
       d="m 698.8928,168.67379 c 0,7.07292 0,14.14583 0,21.21875 34.92708,0 69.85417,0 104.78125,0 0,10.5 0,21 0,31.5 -21.43922,0.55019 -43.00524,-1.09147 -64.375,0.78125 -13.35681,1.29982 -27.53027,9.34017 -29.9375,23.59375 -4.05134,33.77961 13.1726,66.91083 35.46875,91.125 5.53398,5.90466 11.71498,11.17471 18.09375,16.25 4.85429,-4.77047 9.70598,-9.54392 14.53125,-14.34375 -24.11165,-19.60269 -44.95201,-47.16569 -45.75,-79.53125 -1.35838,-7.13881 4.21694,-13.57998 11.34375,-13.8125 20.11147,-1.97086 40.43557,-0.28358 60.625,-0.84375 0,34.97917 0,69.95833 0,104.9375 7.73958,0 15.47917,0 23.21875,0 0,-53.21875 0,-106.4375 0,-159.65625 11.72917,0 23.45833,0 35.1875,0 0,-7.73958 0,-15.47917 0,-23.21875 -54.39583,0 -108.79167,0 -163.1875,0 l 0,1 0,1 z" />
    <path
       style="font-size:288px;font-style:normal;font-variant:normal;font-weight:normal;font-stretch:normal;text-align:start;line-height:125%;letter-spacing:0px;word-spacing:0px;writing-mode:lr-tb;text-anchor:start;fill:none;stroke:#000000;stroke-opacity:1;font-family:Devanagari Sangam MN;-inkscape-font-specification:Devanagari Sangam MN"
       inkscape:connector-curvature="0"
       id="path5898"
       d="m 866.0803,168.67379 c 0,7.07292 0,14.14583 0,21.21875 48.6875,0 97.375,0 146.0625,0 0,12.63542 0,25.27083 0,37.90625 -30.19792,0 -60.39583,0 -90.59375,0 19.04747,15.91426 39.66356,32.74417 48.625,56.5 3.5247,9.25452 1.39781,23.00744 -9.5,26.03125 -16.51244,4.03929 -31.15387,-8.46774 -41.1875,-20.28125 -12.38164,-14.60666 -21.10825,-31.84947 -28.40625,-49.46875 -1.84533,6.30752 -9.90116,6.43052 -14.375,10.34375 -2.91574,2.41187 2.05594,7.68423 2.78125,11.1875 12.23425,25.6632 28.1663,52.06714 53.79063,66.09176 16.73969,9.55812 40.89492,8.66521 53.33437,-7.49801 13.76345,-17.20914 8.77154,-42.73958 -3.5625,-59.28125 -2.64847,-3.60334 -5.54777,-7.08363 -8.5625,-10.40625 12.55208,0 25.10417,0 37.65625,0 0,32.84375 0,65.6875 0,98.53125 7.7396,0 15.4792,0 23.2188,0 0,-53.21875 0,-106.4375 0,-159.65625 11.7291,0 23.4583,0 35.1874,0 0,-7.73958 10e-5,-15.47917 0,-23.21875 -68.1562,0 -136.31245,0 -204.4687,0 l 0,1 0,1 z" />
    <path
       style="font-size:288px;font-style:normal;font-variant:normal;font-weight:normal;font-stretch:normal;text-align:start;line-height:125%;letter-spacing:0px;word-spacing:0px;writing-mode:lr-tb;text-anchor:start;fill:none;stroke:#000000;stroke-opacity:1;font-family:Devanagari Sangam MN;-inkscape-font-specification:Devanagari Sangam MN"
       d="m 875.04851,365.81336 c 0,7.0625 0,14.125 0,21.1875 40.42708,0 80.85417,0 121.28125,0 0,21.875 0,43.75 0,65.625 -14.82599,13.55755 -32.52924,29.68691 -54.40625,27.25 -8.62368,-0.079 -18.64725,-7.12076 -16.4375,-16.71875 3.38597,-13.94052 18.16636,-20.94023 29.77786,-27.36743 6.26376,-3.19755 12.88205,-5.76204 19.47214,-8.35132 -2.49474,-7.46007 -5.04748,-14.90107 -7.59375,-22.34375 -27.5,0 -55,0 -82.5,0 0,7.72917 0,15.45833 0,23.1875 14.11458,0 28.22917,0 42.34375,0 -14.59779,9.34769 -27.72095,25.58773 -24.5,44.03125 1.65143,16.27174 16.48088,28.18583 32.21875,30 20.16456,4.15634 40.54898,-3.72712 56.30384,-16.00109 5.66115,-6.04747 5.95749,-1.69997 5.32116,4.93859 0,18.47917 0,36.95833 0,55.4375 7.72914,0 15.45834,0 23.18754,0 0,-53.22917 0,-106.45833 0,-159.6875 11.7395,0 23.4791,0 35.2187,0 0,-7.72917 0,-15.45833 0,-23.1875 -59.89582,0 -119.79166,0 -179.68749,0 l 0,1 0,1 z"
       id="text6665"
       inkscape:connector-curvature="0" />
    <path
       inkscape:connector-curvature="0"
       id="path6749"
       d="m 99.696917,166.07408 c 0,7.0625 0,14.125 0,21.1875 10.666603,0 21.333303,0 32.000003,0 0,53.22917 0,106.45833 0,159.6875 7.7291,0 15.4583,0 23.1874,0 0,-53.22917 0,-106.45833 0,-159.6875 11.7292,0 23.4584,0 35.1876,0 0,-7.72917 0,-15.45833 0,-23.1875 -30.1251,0 -60.25,0 -90.375003,0 l 0,1 0,1 z"
       style="font-size:288px;font-style:normal;font-variant:normal;font-weight:normal;font-stretch:normal;text-align:start;line-height:125%;letter-spacing:0px;word-spacing:0px;writing-mode:lr-tb;text-anchor:start;fill:none;stroke:#000000;stroke-opacity:1;font-family:Devanagari Sangam MN;-inkscape-font-specification:Devanagari Sangam MN" />
    <g
       transform="translate(161.16166,-95.598255)"
       id="g6773"
       style="font-size:288px;font-style:normal;font-variant:normal;font-weight:normal;font-stretch:normal;text-align:start;line-height:125%;letter-spacing:0px;word-spacing:0px;writing-mode:lr-tb;text-anchor:start;fill:none;stroke:#000000;stroke-opacity:1;font-family:Devanagari Sangam MN;-inkscape-font-specification:Devanagari Sangam MN">
      <path
         style="fill:none;stroke:#000000;stroke-opacity:1"
         inkscape:connector-curvature="0"
         id="path6775"
         d="m 32.5625,261.53125 c 0,7.0625 0,14.125 0,21.1875 36.270833,0 72.54167,0 108.8125,0 0,10.42708 0,20.85417 0,31.28125 -19.1314,-15.6275 -47.248528,-20.95017 -69.779249,-9.69799 -16.563664,7.62665 -31.429953,24.21359 -29.276153,43.60182 2.151549,27.63656 28.155237,48.05106 54.617902,50.59617 15.49812,1.639 31.69836,-1.77102 44.4375,-10.90625 0,18.27083 0,36.54167 0,54.8125 7.72917,0 15.45833,0 23.1875,0 0,-53.22917 0,-106.45833 0,-159.6875 11.73958,0 23.47917,0 35.21875,0 0,-7.72917 0,-15.45833 0,-23.1875 -55.73958,0 -111.479167,0 -167.21875,0 l 0,1 0,1 z m 65.84375,55.90625 c 17.9756,-0.0962 37.54788,10.81424 42.59375,28.71875 2.59032,9.8977 -2.85771,19.47244 -11,24.84375 -4.73989,4.66604 -6.06883,-6.81145 -9.23869,-9.37942 -8.42163,-14.59295 -17.98685,-29.75707 -25.69881,-43.99558 1.105312,-0.16494 2.229605,-0.12001 3.34375,-0.1875 z m 13.6875,61.4375 c -20.606957,3.73329 -44.165802,-10.00699 -48.625,-30.9375 -1.779992,-10.74681 5.398436,-21.27192 15.28125,-25.40625 11.114583,18.78125 22.22917,37.5625 33.34375,56.34375 z" />
    </g>
    <path
       inkscape:connector-curvature="0"
       id="path6788"
       d="m 208.51205,595.71397 c -19.05012,0.096 -38.99605,-11.06192 -44.625,-30 -5.38158,-15.71212 -2.16942,-33.64031 6.84375,-47.3125 5.56293,3.36079 11.08164,6.7945 16.625,10.1875 -7.81184,12.26623 -6.78329,31.12369 6.4375,39.3125 17.05388,10.1469 40.24441,3.5029 52.9375,-10.8125 12.68287,-13.56582 19.37326,-31.35604 25.1875,-48.6875 -10.42708,0 -20.85417,0 -31.28125,0 0,-7.72917 0,-15.45833 0,-23.1875 10.66667,0 21.33333,0 32,0 0,-53.22917 0,-106.45833 0,-159.6875 7.72917,0 15.45833,0 23.1875,0 0,53.22917 0,106.45833 0,159.6875 11.73958,0 23.47917,0 35.21875,0 0,7.72917 0,15.45833 0,23.1875 -11.89583,0 -23.79167,0 -35.6875,0 -7.64666,28.31828 -20.75681,57.09072 -44.87623,74.92499 -12.13299,8.69974 -26.92594,13.26378 -41.96752,12.38751 z"
       style="font-size:288px;font-style:normal;font-variant:normal;font-weight:normal;font-stretch:normal;text-align:start;line-height:125%;letter-spacing:0px;word-spacing:0px;writing-mode:lr-tb;text-anchor:start;fill:none;stroke:#000000;stroke-opacity:1;font-family:Devanagari Sangam MN;-inkscape-font-specification:Devanagari Sangam MN" />
    <path
       inkscape:connector-curvature="0"
       id="path6790"
       d="m 160.97851,472.01309 c 0,-7.0625 0,-14.125 0,-21.1875 10.6666,0 21.3333,0 32,0 0,-53.22917 0,-106.45833 0,-159.6875 7.7291,0 15.4583,0 23.1874,0 0,53.22917 0,106.45833 0,159.6875 11.7292,0 23.4584,0 35.1876,0 0,7.72917 0,15.45833 0,23.1875 -30.1251,0 -60.25,0 -90.375,0 l 0,-1 0,-1 z"
       style="font-size:288px;font-style:normal;font-variant:normal;font-weight:normal;font-stretch:normal;text-align:start;line-height:125%;letter-spacing:0px;word-spacing:0px;writing-mode:lr-tb;text-anchor:start;fill:none;stroke:#000000;stroke-opacity:1;font-family:Devanagari Sangam MN;-inkscape-font-specification:Devanagari Sangam MN" />
    <path
       style="font-size:288px;font-style:normal;font-variant:normal;font-weight:normal;font-stretch:normal;text-align:start;line-height:125%;letter-spacing:0px;word-spacing:0px;writing-mode:lr-tb;text-anchor:start;fill:none;stroke:#000000;stroke-opacity:1;font-family:Devanagari Sangam MN;-inkscape-font-specification:Devanagari Sangam MN"
       d="m 315.5516,377.17782 c 0,7.0625 0,14.125 0,21.1875 10.6666,0 21.3333,0 32,0 0,53.22917 0,106.45833 0,159.6875 7.7291,0 15.4583,0 23.1874,0 0,-53.22917 0,-106.45833 0,-159.6875 11.7292,0 23.4584,0 35.1876,0 0,-7.72917 0,-15.45833 0,-23.1875 -30.1251,0 -60.25,0 -90.375,0 l 0,1 0,1 z"
       id="path6792"
       inkscape:connector-curvature="0" />
    <path
       inkscape:connector-curvature="0"
       id="path6805"
       d="m 399.57381,345.53499 c 0,7.0625 0,14.125 0,21.1875 13.38542,0 26.77083,0 40.15625,0 0,20.27083 0,40.54167 0,60.8125 -8.52813,1.07403 -18.34124,-2.34446 -26.09375,2.1875 -8.21038,6.30713 -3.51948,18.23104 1.40625,25.15625 8.50298,11.59397 20.73717,22.49595 35.53125,24.28125 7.80006,1.25555 13.77477,-6.74374 12.34375,-14.0625 0.90089,-4.28759 -1.76438,-10.86299 1.75,-14.15625 16.90058,-0.5334 33.95101,-0.0559 50.90623,-0.21875 0,25.22917 0,50.45833 0,75.6875 7.7292,0 15.4583,0 23.1875,0 0,-53.22917 0,-106.45833 0,-159.6875 11.7396,0 23.4792,0 35.2188,0 0,-7.72917 0,-15.45833 0,-23.1875 -58.1355,0 -116.27086,0 -174.40628,0 l 0,1 0,1 z m 115.99998,21.1875 c 0,20.27083 0,40.54167 0,60.8125 -17.55206,0 -35.10415,0 -52.65623,0 0,-20.27083 0,-40.54167 0,-60.8125 17.55208,0 35.10417,0 52.65623,0 z"
       style="font-size:288px;font-style:normal;font-variant:normal;font-weight:normal;font-stretch:normal;text-align:start;line-height:125%;letter-spacing:0px;word-spacing:0px;writing-mode:lr-tb;text-anchor:start;fill:none;stroke:#000000;stroke-opacity:1;font-family:Devanagari Sangam MN;-inkscape-font-specification:Devanagari Sangam MN" />
    <path
       inkscape:connector-curvature="0"
       id="path6818"
       d="m 613.73001,478.2339 c -13.01472,-0.0906 -21.90696,-16.02966 -15.125,-27.15625 1.70529,-3.94391 5.96118,-5.90356 8.875,-8.28125 -0.2201,-2.09111 3.86745,-8.25635 -0.25,-6.96875 -15.97529,2.59987 -29.35991,13.94237 -37.84375,27.28125 -5.04012,-5.6274 -10.08643,-11.24969 -15.09375,-16.90625 8.52851,-11.27777 18.66997,-21.77589 31.625,-27.84375 -4.98919,-1.16706 -14.75376,2.44126 -16.46875,-2 0,-7.0625 0,-14.125 0,-21.1875 10.66667,0 21.33334,0 32,0 0,-53.22916 0,-106.45832 0,-159.68749 7.72917,0 15.45834,0 23.1875,0 0,53.22917 0,106.45833 0,159.68749 11.73959,0 23.47917,0 35.21875,0 0,7.72917 0,15.45833 0,23.1875 -3.98731,0.45071 -15.70551,-0.88166 -15.1307,0.62225 12.34139,6.18026 22.10708,16.2458 30.28695,27.2215 -5.01462,5.65934 -10.07897,11.2748 -15.125,16.90625 -8.78691,-13.96667 -22.99913,-25.72475 -39.84375,-27.5 1.21164,3.41182 0.66926,8.20064 4.875,9.3125 11.07195,6.5439 10.40329,24.57137 -0.75,30.65625 -3.05908,1.98306 -6.77716,2.83123 -10.4375,2.65625 z"
       style="font-size:288px;font-style:normal;font-variant:normal;font-weight:normal;font-stretch:normal;text-align:start;line-height:125%;letter-spacing:0px;word-spacing:0px;writing-mode:lr-tb;text-anchor:start;fill:none;stroke:#000000;stroke-opacity:1;font-family:Devanagari Sangam MN;-inkscape-font-specification:Devanagari Sangam MN" />
    <path
       inkscape:connector-curvature="0"
       id="path6831"
       d="m 672.45273,365.81336 c 0,7.0625 0,14.125 0,21.1875 40.42708,0 80.85417,0 121.28125,0 0,21.875 0,43.75 0,65.625 -14.82599,13.55755 -32.52924,29.68691 -54.40625,27.25 -8.62368,-0.079 -18.64725,-7.12076 -16.4375,-16.71875 3.38597,-13.94052 18.16636,-20.94023 29.77786,-27.36743 6.26376,-3.19755 12.88205,-5.76204 19.47214,-8.35132 -2.49474,-7.46007 -5.04748,-14.90107 -7.59375,-22.34375 -27.5,0 -55,0 -82.5,0 0,7.72917 0,15.45833 0,23.1875 14.11458,0 28.22917,0 42.34375,0 -14.59779,9.34769 -27.72095,25.58773 -24.5,44.03125 1.65143,16.27174 16.48088,28.18583 32.21875,30 20.16456,4.15634 40.54898,-3.72712 56.30384,-16.00109 5.66115,-6.04747 5.95749,-1.69997 5.32116,4.93859 0,18.47917 0,36.95833 0,55.4375 7.72914,0 15.45834,0 23.18754,0 0,-53.22917 0,-106.45833 0,-159.6875 11.7395,0 23.4791,0 35.2187,0 0,-7.72917 0,-15.45833 0,-23.1875 -59.89582,0 -119.79166,0 -179.68749,0 l 0,1 0,1 z"
       style="font-size:288px;font-style:normal;font-variant:normal;font-weight:normal;font-stretch:normal;text-align:start;line-height:125%;letter-spacing:0px;word-spacing:0px;writing-mode:lr-tb;text-anchor:start;fill:none;stroke:#000000;stroke-opacity:1;font-family:Devanagari Sangam MN;-inkscape-font-specification:Devanagari Sangam MN" />
    <path
       style="font-size:288px;font-style:normal;font-variant:normal;font-weight:normal;font-stretch:normal;text-align:start;line-height:125%;letter-spacing:0px;word-spacing:0px;writing-mode:lr-tb;text-anchor:start;fill:none;stroke:#000000;stroke-opacity:1;font-family:Devanagari Sangam MN;-inkscape-font-specification:Devanagari Sangam MN"
       d="m 810.03179,-25.14025 c 0,7.0625 0,14.125 0,21.1875 10.6666,0 21.3333,0 32,0 0,53.22917 0,106.45833 0,159.6875 7.7291,0 15.4583,0 23.1874,0 0,-53.22917 0,-106.45833 0,-159.6875 11.7292,0 23.4584,0 35.1876,0 0,-7.72917 0,-15.45833 0,-23.1875 -30.1251,0 -60.25,0 -90.375,0 l 0,1 0,1 z"
       id="path6855"
       inkscape:connector-curvature="0" />
    <path
       inkscape:connector-curvature="0"
       id="path6857"
       d="m 607.43601,121.92928 c 0,7.0625 0,14.125 0,21.1875 10.6666,0 21.3333,0 32,0 0,53.22917 0,106.45833 0,159.6875 7.7291,0 15.4583,0 23.1874,0 0,-53.22917 0,-106.45833 0,-159.6875 11.7292,0 23.4584,0 35.1876,0 0,-7.72917 0,-15.45833 0,-23.1875 -30.1251,0 -60.25,0 -90.375,0 l 0,1 0,1 z"
       style="font-size:288px;font-style:normal;font-variant:normal;font-weight:normal;font-stretch:normal;text-align:start;line-height:125%;letter-spacing:0px;word-spacing:0px;writing-mode:lr-tb;text-anchor:start;fill:none;stroke:#000000;stroke-opacity:1;font-family:Devanagari Sangam MN;-inkscape-font-specification:Devanagari Sangam MN" />
    <path
       style="font-size:288px;font-style:normal;font-variant:normal;font-weight:normal;font-stretch:normal;text-align:start;line-height:125%;letter-spacing:0px;word-spacing:0px;writing-mode:lr-tb;text-anchor:start;fill:none;stroke:#000000;stroke-opacity:1;font-family:Devanagari Sangam MN;-inkscape-font-specification:Devanagari Sangam MN"
       d="m 171.71875,607.14158 c 0,7.0625 0,14.125 0,21.1875 28.10417,0 56.20833,0 84.3125,0 0,6.71875 0,13.4375 0,20.15625 -16.69706,0.88027 -33.87887,-2.00743 -50.25,2.03125 -12.782,3.0168 -23.94078,13.96661 -24.40625,27.5 -1.14573,12.42962 5.74836,23.63908 13.5625,32.625 -15.57823,14.0804 -17.21039,38.406 -7.87367,56.36732 12.12836,24.54253 35.72753,41.36314 60.37367,51.91393 3.29518,-5.22695 6.57689,-10.4624 9.875,-15.6875 -18.56025,-10.72717 -38.76934,-22.08422 -48.75,-41.875 -5.90501,-12.27238 -6.35935,-29.46115 5.4375,-38.65625 13.49062,-10.21843 34.4353,-11.33412 48.21875,-1.28125 10.55034,7.46769 8.86977,24.55976 -1.96875,31.0625 -2.95854,2.02907 -6.12945,3.67692 -9.40625,5.125 4.37833,5.29074 8.72345,10.60888 13.09375,15.90625 13.21136,-6.14347 26.01928,-16.6313 28.25,-31.90625 3.17163,-18.4228 -10.26514,-35.92283 -26.96875,-42.03125 -16.34484,-6.67184 -35.56698,-6.65033 -52,-0.46875 -6.1682,-6.35834 -12.36901,-16.89203 -6.15625,-25.1875 8.50794,-8.67002 22.08964,-4.3659 32.875,-5.4375 13.09375,0 26.1875,0 39.28125,0 0,-13.38542 0,-26.77083 0,-40.15625 11.94792,0 23.89583,0 35.84375,0 0,-7.72917 0,-15.45833 0,-23.1875 -47.78125,0 -95.5625,0 -143.34375,0 l 0,1 0,1 z"
       id="path6905"
       inkscape:connector-curvature="0" />
    <path
       style="font-size:288px;font-style:normal;font-variant:normal;font-weight:normal;font-stretch:normal;text-align:start;line-height:125%;letter-spacing:0px;word-spacing:0px;writing-mode:lr-tb;text-anchor:start;fill:none;stroke:#000000;stroke-opacity:1;font-family:Devanagari Sangam MN;-inkscape-font-specification:Devanagari Sangam MN"
       d="m 319.0625,607.14158 c 0,7.0625 0,14.125 0,21.1875 38.66667,0 77.33333,0 116,0 0,13.875 0,27.75 0,41.625 -32.46733,0.22528 -65.02087,-0.43962 -97.4375,0.3125 -8.2113,1.14952 -10.88334,11.05068 -7.8125,17.84375 6.0375,15.09218 19.37223,27.01106 34.5625,32.46875 6.42728,2.5295 15.46341,0.84677 17.46875,-6.59375 2.0341,-6.52554 -1.42659,-14.48256 1.9375,-20.4375 10.97724,-1.10422 22.57216,-0.0207 33.75,-0.40625 5.47709,0.69999 13.73484,-1.38067 17.53125,1 0,31.29167 0,62.58333 0,93.875 7.72917,0 15.45833,0 23.1875,0 0,-53.22917 0,-106.45833 0,-159.6875 11.72917,0 23.45833,0 35.1875,0 0,-7.72917 0,-15.45833 0,-23.1875 -58.125,0 -116.25,0 -174.375,0 l 0,1 0,1 z"
       id="text6897"
       inkscape:connector-curvature="0" />
    <g
       style="font-size:288px;font-style:normal;font-variant:normal;font-weight:normal;font-stretch:normal;text-align:start;line-height:125%;letter-spacing:0px;word-spacing:0px;writing-mode:lr-tb;text-anchor:start;fill:none;stroke:#000000;stroke-opacity:1;font-family:Devanagari Sangam MN;-inkscape-font-specification:Devanagari Sangam MN"
       id="g6907"
       transform="translate(-32.0625,345.61033)">
      <path
         d="m 32.5625,261.53125 c 0,7.0625 0,14.125 0,21.1875 36.270833,0 72.54167,0 108.8125,0 0,10.42708 0,20.85417 0,31.28125 -19.1314,-15.6275 -47.248528,-20.95017 -69.779249,-9.69799 -16.563664,7.62665 -31.429953,24.21359 -29.276153,43.60182 2.151549,27.63656 28.155237,48.05106 54.617902,50.59617 15.49812,1.639 31.69836,-1.77102 44.4375,-10.90625 0,18.27083 0,36.54167 0,54.8125 7.72917,0 15.45833,0 23.1875,0 0,-53.22917 0,-106.45833 0,-159.6875 11.73958,0 23.47917,0 35.21875,0 0,-7.72917 0,-15.45833 0,-23.1875 -55.73958,0 -111.479167,0 -167.21875,0 l 0,1 0,1 z m 65.84375,55.90625 c 17.9756,-0.0962 37.54788,10.81424 42.59375,28.71875 2.59032,9.8977 -2.85771,19.47244 -11,24.84375 -4.73989,4.66604 -6.06883,-6.81145 -9.23869,-9.37942 -8.42163,-14.59295 -17.98685,-29.75707 -25.69881,-43.99558 1.105312,-0.16494 2.229605,-0.12001 3.34375,-0.1875 z m 13.6875,61.4375 c -20.606957,3.73329 -44.165802,-10.00699 -48.625,-30.9375 -1.779992,-10.74681 5.398436,-21.27192 15.28125,-25.40625 11.114583,18.78125 22.22917,37.5625 33.34375,56.34375 z"
         id="path6909"
         inkscape:connector-curvature="0"
         style="fill:none;stroke:#000000;stroke-opacity:1" />
    </g>
    <path
       style="font-size:288px;font-style:normal;font-variant:normal;font-weight:normal;font-stretch:normal;text-align:start;line-height:125%;letter-spacing:0px;word-spacing:0px;writing-mode:lr-tb;text-anchor:start;fill:none;stroke:#000000;stroke-opacity:1;font-family:Devanagari Sangam MN;-inkscape-font-specification:Devanagari Sangam MN"
       d="m 535.1803,598.42283 c -14.84878,-0.31802 -30.88102,9.17353 -33.375,24.625 -3.99859,18.18342 9.78339,37.89077 28.5,39.4375 7.6275,1.09624 15.67916,-0.0417 22.59375,-3.40625 0,10.01042 0,20.02083 0,30.03125 -8.67564,1.12827 -18.80749,-2.53487 -26.5625,2.5625 -7.60047,6.59077 -2.89605,17.98039 1.875,24.8125 8.48694,11.58968 20.71882,22.47778 35.53125,24.28125 7.81208,1.25434 13.7913,-6.77478 12.34375,-14.09375 0.91054,-4.28377 -1.77806,-10.83563 1.75,-14.125 16.8415,-0.53541 33.96314,-0.0544 50.90625,-0.21875 0,25.22917 0,50.45833 0,75.6875 7.72917,0 15.45833,0 23.1875,0 0,-53.22917 0,-106.45833 0,-159.6875 11.72917,0 23.45833,0 35.1875,0 0,-7.73958 0,-15.47917 0,-23.21875 -31.88542,0 -63.77083,0 -95.65625,0 0,7.73958 0,15.47917 0,23.21875 12.42708,0 24.85417,0 37.28125,0 0,20.26042 0,40.52083 0,60.78125 -17.55208,0 -35.10417,0 -52.65625,0 -0.73303,-18.95246 1.56695,-38.16114 -1.33741,-56.9522 -2.6223,-15.29228 -13.67214,-29.69924 -29.38134,-32.76655 -3.34711,-0.70673 -6.75752,-1.08023 -10.1875,-0.96875 z m 0.71875,23.1875 c 8.79277,-0.22952 15.81957,8.01168 16.5625,16.15625 -7.46028,5.23791 -20.15052,8.30641 -26.4375,0 -4.36468,-6.27263 0.20814,-15.57856 7.84375,-15.96875 0.65662,-0.11212 1.33645,-0.11609 2.03125,-0.1875 z"
       id="path6931"
       inkscape:connector-curvature="0" />
    <path
       style="font-size:288px;font-style:normal;font-variant:normal;font-weight:normal;font-stretch:normal;text-align:start;line-height:125%;letter-spacing:0px;word-spacing:0px;writing-mode:lr-tb;text-anchor:start;fill:none;stroke:#000000;stroke-opacity:1;font-family:Devanagari Sangam MN;-inkscape-font-specification:Devanagari Sangam MN"
       d="m 872.46155,502.70408 c -19.65592,-0.21678 -36.37213,18.0469 -35.125,37.53125 0.71479,21.04563 16.94542,37.39199 33.59375,48 6.10424,3.27245 -8.79794,0.67184 -11.5,1.5 -24.64583,0 -49.29167,0 -73.9375,0 0,7.72917 0,15.45833 0,23.1875 32.375,0 64.75,0 97.125,0 -1.49074,4.74884 3.65491,16.13408 -4,14.71875 -19.10898,0.59293 -38.40227,-1.19893 -57.40625,0.90625 -12.86803,1.08618 -26.19805,10.49767 -26.0625,24.5 -1.37165,17.58285 9.94234,34.97932 27.03125,39.96875 20.67813,6.34656 41.53692,-4.27379 62.3125,-3.1875 7.47841,2.23981 6.37732,12.59465 3.59375,18.21875 -4.87213,9.70929 -14.16552,16.1937 -23.21875,21.6875 -15.17203,-13.67996 -36.26448,-26.14526 -57.4375,-19.9375 -11.42058,2.74936 -20.19668,14.22748 -17.875,26.15625 1.09173,14.17395 14.29577,23.81375 27.5625,25.5 15.49584,2.64704 31.62364,-0.57938 46,-6.5625 8.97217,10.07879 17.04021,21.23611 23.625,33.125 3.88499,-3.88545 11.00974,-6.99023 12.88856,-11.31194 -5.15945,-10.96263 -12.03717,-21.0856 -19.41981,-30.68806 15.39742,-9.73111 30.72516,-23.93668 33.03125,-42.90625 1.1525,-13.45691 -4.21533,-29.65934 -18.34375,-33.90625 -15.88133,-5.01984 -32.15008,1.95292 -47.99835,3.81571 -9.27075,1.93168 -21.90818,2.16481 -26.7204,-7.69071 -2.69357,-5.44082 -3.59086,-14.71798 3.90625,-16.65625 11.73176,-2.4233 24.14966,-0.33381 36.125,-1.03125 15.19792,0 30.39583,0 45.59375,0 0,-11.57292 0,-23.14583 0,-34.71875 14.23958,0 28.47917,0 42.71875,0 0,-7.72917 0,-15.45833 0,-23.1875 -15.70531,-0.34939 -31.79658,0.69467 -47.26374,-0.5145 -15.56749,-10.47195 -31.84796,-22.44249 -39.95501,-39.798 -5.45754,-11.38451 4.69212,-26.98928 17.65625,-24.09375 7.15874,0.85671 13.62199,4.67168 19.75,8.53125 3.43356,-5.66275 6.85399,-11.33344 10.28125,-17 -10.3397,-8.22073 -22.99433,-14.69901 -36.53125,-14.15625 z m -54.5625,225.4375 c 9.90346,0.0445 19.11181,4.78862 27.09375,10.34375 -10.13264,2.97566 -22.47477,6.76679 -32.28125,0.90625 -4.16509,-2.44794 -5.20474,-9.99409 0.84375,-10.625 1.3924,-0.46744 2.87955,-0.63745 4.34375,-0.625 z"
       id="path6933"
       inkscape:connector-curvature="0" />
    <path
       inkscape:connector-curvature="0"
       id="path6941"
       d="m 691.1178,607.14158 c 0,7.0625 0,14.125 0,21.1875 10.6666,0 21.3333,0 32,0 0,53.22917 0,106.45833 0,159.6875 7.7291,0 15.4583,0 23.1874,0 0,-53.22917 0,-106.45833 0,-159.6875 11.7292,0 23.4584,0 35.1876,0 0,-7.72917 0,-15.45833 0,-23.1875 -30.1251,0 -60.25,0 -90.375,0 l 0,1 0,1 z"
       style="font-size:288px;font-style:normal;font-variant:normal;font-weight:normal;font-stretch:normal;text-align:start;line-height:125%;letter-spacing:0px;word-spacing:0px;writing-mode:lr-tb;text-anchor:start;fill:none;stroke:#000000;stroke-opacity:1;font-family:Devanagari Sangam MN;-inkscape-font-specification:Devanagari Sangam MN" />
    <path
       style="font-size:288px;font-style:normal;font-variant:normal;font-weight:normal;font-stretch:normal;text-align:start;line-height:125%;letter-spacing:0px;word-spacing:0px;writing-mode:lr-tb;text-anchor:start;fill:none;stroke:#000000;stroke-opacity:1;font-family:Devanagari Sangam MN;-inkscape-font-specification:Devanagari Sangam MN"
       d="m 7.3001038,825.76202 c 0,7.0625 0,14.125 0,21.1875 13.3854202,0 26.7708302,0 40.1562502,0 0,20.27083 0,40.54167 0,60.8125 -8.52813,1.07403 -18.34124,-2.34446 -26.09375,2.1875 -8.21038,6.30713 -3.51948,18.23104 1.40625,25.15625 8.50298,11.59397 20.73717,22.49595 35.53125,24.28125 7.80006,1.25555 13.77477,-6.74374 12.34375,-14.0625 0.90089,-4.28759 -1.76438,-10.86299 1.75,-14.15625 16.900577,-0.5334 33.951006,-0.0559 50.906226,-0.21875 0,25.22917 0,50.45833 0,75.68758 7.7292,0 15.4583,0 23.1875,0 0,-53.22925 0,-106.45841 0,-159.68758 11.7396,0 23.4792,0 35.2188,0 0,-7.72917 0,-15.45833 0,-23.1875 -58.1355,0 -116.270856,0 -174.4062762,0 l 0,1 0,1 z m 115.9999762,21.1875 c 0,20.27083 0,40.54167 0,60.8125 -17.55206,0 -35.104149,0 -52.656226,0 0,-20.27083 0,-40.54167 0,-60.8125 17.552077,0 35.104166,0 52.656226,0 z"
       id="path6943"
       inkscape:connector-curvature="0" />
    <path
       style="font-size:288px;font-style:normal;font-variant:normal;font-weight:normal;font-stretch:normal;text-align:start;line-height:125%;letter-spacing:0px;word-spacing:0px;writing-mode:lr-tb;text-anchor:start;fill:none;stroke:#000000;stroke-opacity:1;font-family:Devanagari Sangam MN;-inkscape-font-specification:Devanagari Sangam MN"
       d="m 185.70638,825.76202 c 0,7.0625 0,14.125 0,21.1875 10.6666,0 21.3333,0 32,0 0,53.22917 0,106.45833 0,159.68748 7.7291,0 15.4583,0 23.1874,0 0,-53.22915 0,-106.45831 0,-159.68748 11.7292,0 23.4584,0 35.1876,0 0,-7.72917 0,-15.45833 0,-23.1875 -30.1251,0 -60.25,0 -90.375,0 l 0,1 0,1 z"
       id="path6945"
       inkscape:connector-curvature="0" />
    <path
       inkscape:connector-curvature="0"
       id="path6947"
       d="m 280.08138,825.76202 c 0,7.0625 0,14.125 0,21.1875 13.38542,0 26.77083,0 40.15625,0 0,20.27083 0,40.54167 0,60.8125 -8.52813,1.07403 -18.34124,-2.34446 -26.09375,2.1875 -8.21038,6.30713 -3.51948,18.23104 1.40625,25.15625 8.50298,11.59397 20.73717,22.49595 35.53125,24.28125 7.80006,1.25555 13.77477,-6.74374 12.34375,-14.0625 0.90089,-4.28759 -1.76438,-10.86299 1.75,-14.15625 16.90058,-0.5334 33.951,-0.0559 50.90622,-0.21875 0,25.22917 0,50.45833 0,75.68758 7.7292,0 15.4583,0 23.1875,0 0,-53.22925 0,-106.45841 0,-159.68758 11.7396,0 23.4792,0 35.2188,0 0,-7.72917 0,-15.45833 0,-23.1875 -58.1355,0 -116.27085,0 -174.40627,0 l 0,1 0,1 z m 115.99997,21.1875 c 0,20.27083 0,40.54167 0,60.8125 -17.55206,0 -35.10414,0 -52.65622,0 0,-20.27083 0,-40.54167 0,-60.8125 17.55208,0 35.10416,0 52.65622,0 z"
       style="font-size:288px;font-style:normal;font-variant:normal;font-weight:normal;font-stretch:normal;text-align:start;line-height:125%;letter-spacing:0px;word-spacing:0px;writing-mode:lr-tb;text-anchor:start;fill:none;stroke:#000000;stroke-opacity:1;font-family:Devanagari Sangam MN;-inkscape-font-specification:Devanagari Sangam MN" />
    <path
       inkscape:connector-curvature="0"
       id="path6949"
       d="m 458.48765,825.76202 c 0,7.0625 0,14.125 0,21.1875 10.6666,0 21.3333,0 32,0 0,53.22917 0,106.45833 0,159.68748 7.7291,0 15.4583,0 23.1874,0 0,-53.22915 0,-106.45831 0,-159.68748 11.7292,0 23.4584,0 35.1876,0 0,-7.72917 0,-15.45833 0,-23.1875 -30.1251,0 -60.25,0 -90.375,0 l 0,1 0,1 z"
       style="font-size:288px;font-style:normal;font-variant:normal;font-weight:normal;font-stretch:normal;text-align:start;line-height:125%;letter-spacing:0px;word-spacing:0px;writing-mode:lr-tb;text-anchor:start;fill:none;stroke:#000000;stroke-opacity:1;font-family:Devanagari Sangam MN;-inkscape-font-specification:Devanagari Sangam MN" />
    <path
       style="font-size:288px;font-style:normal;font-variant:normal;font-weight:normal;font-stretch:normal;text-align:start;line-height:125%;letter-spacing:0px;word-spacing:0px;writing-mode:lr-tb;text-anchor:start;fill:none;stroke:#000000;stroke-opacity:1;font-family:Devanagari Sangam MN;-inkscape-font-specification:Devanagari Sangam MN"
       d="m 552.86265,825.76202 c 0,7.0625 0,14.125 0,21.1875 13.38542,0 26.77083,0 40.15625,0 0,20.27083 0,40.54167 0,60.8125 -8.52813,1.07403 -18.34124,-2.34446 -26.09375,2.1875 -8.21038,6.30713 -3.51948,18.23104 1.40625,25.15625 8.50298,11.59397 20.73717,22.49595 35.53125,24.28125 7.80006,1.25555 13.77477,-6.74374 12.34375,-14.0625 0.90089,-4.28759 -1.76438,-10.86299 1.75,-14.15625 16.90058,-0.5334 33.951,-0.0559 50.90622,-0.21875 0,25.22917 0,50.45833 0,75.68758 7.7292,0 15.4583,0 23.1875,0 0,-53.22925 0,-106.45841 0,-159.68758 11.7396,0 23.4792,0 35.2188,0 0,-7.72917 0,-15.45833 0,-23.1875 -58.1355,0 -116.27085,0 -174.40627,0 l 0,1 0,1 z m 115.99997,21.1875 c 0,20.27083 0,40.54167 0,60.8125 -17.55206,0 -35.10414,0 -52.65622,0 0,-20.27083 0,-40.54167 0,-60.8125 17.55208,0 35.10416,0 52.65622,0 z"
       id="path6951"
       inkscape:connector-curvature="0" />
    <path
       inkscape:connector-curvature="0"
       id="path6953"
       d="m 731.26892,825.76202 c 0,7.0625 0,14.125 0,21.1875 10.6666,0 21.3333,0 32,0 0,53.22917 0,106.45833 0,159.68758 7.7291,0 15.4583,0 23.1874,0 0,-53.22925 0,-106.45841 0,-159.68758 11.7292,0 23.4584,0 35.1876,0 0,-7.72917 0,-15.45833 0,-23.1875 -30.1251,0 -60.25,0 -90.375,0 l 0,1 0,1 z"
       style="font-size:288px;font-style:normal;font-variant:normal;font-weight:normal;font-stretch:normal;text-align:start;line-height:125%;letter-spacing:0px;word-spacing:0px;writing-mode:lr-tb;text-anchor:start;fill:none;stroke:#000000;stroke-opacity:1;font-family:Devanagari Sangam MN;-inkscape-font-specification:Devanagari Sangam MN" />
    <path
       style="font-size:288px;font-style:normal;font-variant:normal;font-weight:normal;font-stretch:normal;text-align:start;line-height:125%;letter-spacing:0px;word-spacing:0px;writing-mode:lr-tb;text-anchor:start;fill:none;stroke:#000000;stroke-opacity:1;font-family:Devanagari Sangam MN;-inkscape-font-specification:Devanagari Sangam MN"
       d="m 825.64392,825.76202 c 0,7.0625 0,14.125 0,21.1875 13.38542,0 26.77083,0 40.15625,0 0,20.27083 0,40.54167 0,60.8125 -8.52813,1.07403 -18.34124,-2.34446 -26.09375,2.1875 -8.21038,6.30713 -3.51948,18.23104 1.40625,25.15625 8.50298,11.59397 20.73717,22.49595 35.53125,24.28125 7.80006,1.25555 13.77477,-6.74374 12.34375,-14.0625 0.90089,-4.28759 -1.76438,-10.86299 1.75,-14.15625 16.90058,-0.5334 33.951,-0.0559 50.90622,-0.21875 0,25.22917 0,50.45833 0,75.68758 7.7292,0 15.4583,0 23.1875,0 0,-53.22925 0,-106.45841 0,-159.68758 11.7396,0 23.4792,0 35.21881,0 0,-7.72917 0,-15.45833 0,-23.1875 -58.13551,0 -116.27086,0 -174.40628,0 l 0,1 0,1 z m 115.99997,21.1875 c 0,20.27083 0,40.54167 0,60.8125 -17.55206,0 -35.10414,0 -52.65622,0 0,-20.27083 0,-40.54167 0,-60.8125 17.55208,0 35.10416,0 52.65622,0 z"
       id="path6955"
       inkscape:connector-curvature="0" />
    <path
       inkscape:connector-curvature="0"
       id="path6957"
       d="m 955.86538,702.3111 c -19.05012,-0.096 -38.99605,11.06192 -44.625,30 -5.38158,15.71213 -2.16942,33.64031 6.84375,47.3125 5.56293,-3.36079 11.08164,-6.79449 16.625,-10.1875 -7.81184,-12.26623 -6.78329,-31.12369 6.4375,-39.3125 17.05388,-10.1469 40.24441,-3.5029 52.9375,10.8125 12.68287,13.56582 19.37317,31.35604 25.18737,48.6875 -10.427,0 -20.85404,0 -31.28112,0 0,7.72917 0,15.45834 0,23.18751 10.66667,0 21.33332,0 31.99992,0 0,53.22917 0,106.45833 0,159.68746 7.7292,0 15.4583,0 23.1875,0 0,-53.22913 0,-106.45829 0,-159.68746 11.7396,0 23.4792,0 35.2187,0 0,-7.72917 0,-15.45834 0,-23.18751 -11.8958,0 -23.7916,0 -35.6875,0 -7.6466,-28.31828 -20.7568,-57.09071 -44.8761,-74.92498 -12.13299,-8.69974 -26.92594,-13.26379 -41.96752,-12.38752 z"
       style="font-size:288px;font-style:normal;font-variant:normal;font-weight:normal;font-stretch:normal;text-align:start;line-height:125%;letter-spacing:0px;word-spacing:0px;writing-mode:lr-tb;text-anchor:start;fill:none;stroke:#000000;stroke-opacity:1;font-family:Devanagari Sangam MN;-inkscape-font-specification:Devanagari Sangam MN" />
  </g>
</svg>
